0
SECTION
2
HEADER
9
$INSUNITS
70
4
9
$ACADVER
1
AC1014
9
$HANDSEED
5
FFFF
0
ENDSEC
0
SECTION
2
TABLES
0
TABLE
2
VPORT
5
8
100
AcDbSymbolTable
0
ENDTAB
0
TABLE
2
LTYPE
5
5
100
AcDbSymbolTable
0
LTYPE
5
14
100
AcDbSymbolTableRecord
100
AcDbLinetypeTableRecord
2
BYBLOCK
70
0
0
LTYPE
5
15
100
AcDbSymbolTableRecord
100
AcDbLinetypeTableRecord
2
BYLAYER
70
0
0
ENDTAB
0
TABLE
2
LAYER
5
2
100
AcDbSymbolTable
70
2
0
LAYER
5
50
100
AcDbSymbolTableRecord
100
AcDbLayerTableRecord
2
0
70
0
6
CONTINUOUS
0
ENDTAB
0
TABLE
2
STYLE
5
3
100
AcDbSymbolTable
70
1
0
STYLE
5
11
100
AcDbSymbolTableRecord
100
AcDbTextStyleTableRecord
2
STANDARD
70
0
0
ENDTAB
0
TABLE
2
VIEW
5
6
100
AcDbSymbolTable
70
0
0
ENDTAB
0
TABLE
2
UCS
5
7
100
AcDbSymbolTable
70
0
0
ENDTAB
0
TABLE
2
APPID
5
9
100
AcDbSymbolTable
70
2
0
APPID
5
12
100
AcDbSymbolTableRecord
100
AcDbRegAppTableRecord
2
ACAD
70
0
0
ENDTAB
0
TABLE
2
DIMSTYLE
5
A
100
AcDbSymbolTable
70
1
0
ENDTAB
0
TABLE
2
BLOCK_RECORD
5
1
100
AcDbSymbolTable
70
1
0
BLOCK_RECORD
5
1F
100
AcDbSymbolTableRecord
100
AcDbBlockTableRecord
2
*MODEL_SPACE
0
BLOCK_RECORD
5
1B
100
AcDbSymbolTableRecord
100
AcDbBlockTableRecord
2
*PAPER_SPACE
0
ENDTAB
0
ENDSEC
0
SECTION
2
BLOCKS
0
BLOCK
5
20
100
AcDbEntity
100
AcDbBlockBegin
2
*MODEL_SPACE
0
ENDBLK
5
21
100
AcDbEntity
100
AcDbBlockEnd
0
BLOCK
5
1C
100
AcDbEntity
100
AcDbBlockBegin
2
*PAPER_SPACE
0
ENDBLK
5
1D
100
AcDbEntity
100
AcDbBlockEnd
0
ENDSEC
0
SECTION
2
ENTITIES
0
LINE
5
100
100
AcDbEntity
8
0
100
AcDbLine
10
140
20
185
30
0
11
11.999999999999993
21
185
31
0
0
LINE
5
101
100
AcDbEntity
8
0
100
AcDbLine
10
11.999999999999993
20
185
30
0
11
-8.0000000000000071
21
185
31
0
0
LINE
5
102
100
AcDbEntity
8
0
100
AcDbLine
10
1.9999999999999902
20
145
30
0
11
11.999999999999993
21
145
31
0
0
LINE
5
103
100
AcDbEntity
8
0
100
AcDbLine
10
140
20
185
30
0
11
160
21
185
31
0
0
LINE
5
104
100
AcDbEntity
8
0
100
AcDbLine
10
150
20
145
30
0
11
140
21
145
31
0
0
ARC
5
105
100
AcDbEntity
8
0
100
AcDbCircle
10
150
20
155
30
0
40
10
210
-0
220
0
230
1
100
AcDbArc
50
-90
51
0
0
ARC
5
106
100
AcDbEntity
8
0
100
AcDbCircle
10
1.999999999999984
20
155
30
0
40
9.9999999999999911
210
0
220
0
230
1
100
AcDbArc
50
180
51
270.00000000000006
0
LWPOLYLINE
5
107
100
AcDbEntity
8
0
100
AcDbPolyline
90
4
70
1
43
0.0
10
-8.0000000000000071
20
165.00000268220899
10
-7.9999999999999716
20
-12.999997317791028
10
-118
20
-12.999997317791063
10
-118.00000000000004
20
165.00000268220899
0
LWPOLYLINE
5
108
100
AcDbEntity
8
0
100
AcDbPolyline
90
8
70
1
43
0.0
10
-118.00000000000006
20
165.00000268220901
10
-8.0000000000000071
20
165.00000268220901
10
-8.0000000000000071
20
170
10
-13.000000000000007
20
170
10
-13.000000000000007
20
180.00000014901158
10
-8.0000000000000071
20
180.00000014901158
10
-8.0000000000000071
20
185.00000268220899
10
-98.000000000000057
20
185.00000268220904
42
0.41421356237309503
0
LINE
5
109
100
AcDbEntity
8
0
100
AcDbLine
10
-118.00000000000006
20
165.00000268220901
30
1.0362081563168129e-13
11
-98.000000000000057
21
165.00000268220901
31
9.7699626167013776e-14
0
LINE
5
110
100
AcDbEntity
8
0
100
AcDbLine
10
-8.0000000000000071
20
170
30
6.9573977003936552e-14
11
-8.0000000000000071
21
165.00000268220901
31
7.1054273576010019e-14
0
LINE
5
111
100
AcDbEntity
8
0
100
AcDbLine
10
160
20
185
30
0
11
160
21
180.00000268220901
31
0
0
LINE
5
112
100
AcDbEntity
8
0
100
AcDbLine
10
160
20
180.00000268220901
30
0
11
165
21
180.00000268220901
31
0
0
LINE
5
113
100
AcDbEntity
8
0
100
AcDbLine
10
165
20
180.00000268220901
30
0
11
165
21
170.00000268220901
31
0
0
LINE
5
114
100
AcDbEntity
8
0
100
AcDbLine
10
165
20
170.00000268220901
30
0
11
160
21
170.00000268220901
31
0
0
LINE
5
115
100
AcDbEntity
8
0
100
AcDbLine
10
160
20
185
30
0
11
160
21
180.00000268220901
31
0
0
LINE
5
116
100
AcDbEntity
8
0
100
AcDbLine
10
160
20
170.00000268220901
30
0
11
160
21
155
31
0
0
LWPOLYLINE
5
117
100
AcDbEntity
8
0
100
AcDbPolyline
90
8
70
1
43
0.0
10
160
20
170.00000268220901
10
160
20
82.000002682208986
10
165
20
82.000002682208986
10
165
20
62.000002682208986
10
225
20
62.000002682209008
10
225
20
190.00000268220901
10
165
20
190.00000268220901
10
165
20
170.00000268220901
0
LINE
5
118
100
AcDbEntity
8
0
100
AcDbLine
10
160
20
82.000002682208986
30
1.1304088978001593e-13
11
160
21
86.500002682209001
31
1.1158750691141572e-13
0
LINE
5
119
100
AcDbEntity
8
0
100
AcDbLine
10
197.00000000000003
20
62.000002682208986
30
1.3145040611561851e-13
11
165
21
62.000002682208986
31
1.2111523905001706e-13
0
CIRCLE
5
120
100
AcDbEntity
8
0
100
AcDbCircle
10
197.00000000000003
20
71.500002682208986
30
1.2838215339301809e-13
40
2.0000000000000022
210
-3.2297397080004535e-16
220
3.2297397080004525e-16
230
1
0
CIRCLE
5
121
100
AcDbEntity
8
0
100
AcDbCircle
10
197.00000000000003
20
76.500002682208986
30
1.2676728353901787e-13
40
2.0000000000000022
210
-3.2297397080004535e-16
220
3.2297397080004525e-16
230
1
0
CIRCLE
5
122
100
AcDbEntity
8
0
100
AcDbCircle
10
196.99999999999994
20
96.500002682209001
30
1.2030780412301695e-13
40
2.0000000000000022
210
-3.2297397080004535e-16
220
3.2297397080004525e-16
230
1
0
CIRCLE
5
123
100
AcDbEntity
8
0
100
AcDbCircle
10
196.99999999999994
20
101.500002682209
30
1.1869293426901673e-13
40
2.0000000000000022
210
-3.2297397080004535e-16
220
3.2297397080004525e-16
230
1
0
CIRCLE
5
124
100
AcDbEntity
8
0
100
AcDbCircle
10
196.99999999999994
20
106.500002682209
30
1.170780644150165e-13
40
2.0000000000000022
210
-3.2297397080004535e-16
220
3.2297397080004525e-16
230
1
0
CIRCLE
5
125
100
AcDbEntity
8
0
100
AcDbCircle
10
196.99999999999994
20
136.50000268220901
30
1.0738884529101514e-13
40
2.0000000000000022
210
-3.2297397080004535e-16
220
3.2297397080004525e-16
230
1
0
CIRCLE
5
126
100
AcDbEntity
8
0
100
AcDbCircle
10
196.99999999999994
20
141.50000268220901
30
1.0577397543701492e-13
40
2.0000000000000022
210
-3.2297397080004535e-16
220
3.2297397080004525e-16
230
1
0
CIRCLE
5
127
100
AcDbEntity
8
0
100
AcDbCircle
10
196.99999999999994
20
146.50000268220901
30
1.0415910558301468e-13
40
2.0000000000000022
210
-3.2297397080004535e-16
220
3.2297397080004525e-16
230
1
0
CIRCLE
5
128
100
AcDbEntity
8
0
100
AcDbCircle
10
196.99999999999994
20
116.500002682209
30
1.1384832470701603e-13
40
2.0000000000000022
210
-3.2297397080004535e-16
220
3.2297397080004525e-16
230
1
0
CIRCLE
5
129
100
AcDbEntity
8
0
100
AcDbCircle
10
196.99999999999994
20
121.500002682209
30
1.1223345485301583e-13
40
2.0000000000000022
210
-3.2297397080004535e-16
220
3.2297397080004525e-16
230
1
0
CIRCLE
5
130
100
AcDbEntity
8
0
100
AcDbCircle
10
196.99999999999994
20
126.500002682209
30
1.1061858499901559e-13
40
2.0000000000000022
210
-3.2297397080004535e-16
220
3.2297397080004525e-16
230
1
0
CIRCLE
5
131
100
AcDbEntity
8
0
100
AcDbCircle
10
196.99999999999994
20
131.50000268220901
30
1.0900371514501538e-13
40
2.0000000000000022
210
-3.2297397080004535e-16
220
3.2297397080004525e-16
230
1
0
CIRCLE
5
132
100
AcDbEntity
8
0
100
AcDbCircle
10
196.99999999999994
20
111.500002682209
30
1.1546319456101628e-13
40
2.0000000000000022
210
-3.2297397080004535e-16
220
3.2297397080004525e-16
230
1
0
CIRCLE
5
133
100
AcDbEntity
8
0
100
AcDbCircle
10
196.99999999999994
20
166.50000268220901
30
9.7699626167013776e-14
40
2.0000000000000022
210
-3.2297397080004535e-16
220
3.2297397080004525e-16
230
1
0
CIRCLE
5
134
100
AcDbEntity
8
0
100
AcDbCircle
10
196.99999999999994
20
181.50000268220901
30
9.2855016605013094e-14
40
2.0000000000000022
210
-3.2297397080004535e-16
220
3.2297397080004525e-16
230
1
0
CIRCLE
5
135
100
AcDbEntity
8
0
100
AcDbCircle
10
196.99999999999994
20
176.50000268220901
30
9.4469886459013329e-14
40
2.0000000000000022
210
-3.2297397080004535e-16
220
3.2297397080004525e-16
230
1
0
CIRCLE
5
136
100
AcDbEntity
8
0
100
AcDbCircle
10
196.99999999999994
20
151.50000268220901
30
1.0254423572901446e-13
40
2.0000000000000022
210
-3.2297397080004535e-16
220
3.2297397080004525e-16
230
1
0
CIRCLE
5
137
100
AcDbEntity
8
0
100
AcDbCircle
10
196.99999999999994
20
171.50000268220901
30
9.6084756313013552e-14
40
2.0000000000000022
210
-3.2297397080004535e-16
220
3.2297397080004525e-16
230
1
0
CIRCLE
5
138
100
AcDbEntity
8
0
100
AcDbCircle
10
196.99999999999994
20
161.50000268220901
30
9.9314496021013999e-14
40
2.0000000000000022
210
-3.2297397080004535e-16
220
3.2297397080004525e-16
230
1
0
CIRCLE
5
139
100
AcDbEntity
8
0
100
AcDbCircle
10
196.99999999999994
20
156.50000268220901
30
1.0092936587501422e-13
40
2.0000000000000022
210
-3.2297397080004535e-16
220
3.2297397080004525e-16
230
1
0
CIRCLE
5
140
100
AcDbEntity
8
0
100
AcDbCircle
10
191.99999999999994
20
126.500002682209
30
1.0900371514501538e-13
40
2.0000000000000022
210
-3.2297397080004535e-16
220
3.2297397080004525e-16
230
1
0
CIRCLE
5
141
100
AcDbEntity
8
0
100
AcDbCircle
10
191.99999999999994
20
146.50000268220901
30
1.0254423572901446e-13
40
2.0000000000000022
210
-3.2297397080004535e-16
220
3.2297397080004525e-16
230
1
0
CIRCLE
5
142
100
AcDbEntity
8
0
100
AcDbCircle
10
192.00000000000003
20
71.500002682208986
30
1.2676728353901787e-13
40
2.0000000000000022
210
-3.2297397080004535e-16
220
3.2297397080004525e-16
230
1
0
CIRCLE
5
143
100
AcDbEntity
8
0
100
AcDbCircle
10
191.99999999999994
20
156.50000268220901
30
9.9314496021013999e-14
40
2.0000000000000022
210
-3.2297397080004535e-16
220
3.2297397080004525e-16
230
1
0
CIRCLE
5
144
100
AcDbEntity
8
0
100
AcDbCircle
10
191.99999999999994
20
141.50000268220901
30
1.0415910558301468e-13
40
2.0000000000000022
210
-3.2297397080004535e-16
220
3.2297397080004525e-16
230
1
0
CIRCLE
5
145
100
AcDbEntity
8
0
100
AcDbCircle
10
191.99999999999994
20
101.500002682209
30
1.170780644150165e-13
40
2.0000000000000022
210
-3.2297397080004535e-16
220
3.2297397080004525e-16
230
1
0
CIRCLE
5
146
100
AcDbEntity
8
0
100
AcDbCircle
10
191.99999999999994
20
121.500002682209
30
1.1061858499901559e-13
40
2.0000000000000022
210
-3.2297397080004535e-16
220
3.2297397080004525e-16
230
1
0
CIRCLE
5
147
100
AcDbEntity
8
0
100
AcDbCircle
10
191.99999999999994
20
96.500002682209001
30
1.1869293426901673e-13
40
2.0000000000000022
210
-3.2297397080004535e-16
220
3.2297397080004525e-16
230
1
0
CIRCLE
5
148
100
AcDbEntity
8
0
100
AcDbCircle
10
191.99999999999994
20
116.500002682209
30
1.1223345485301583e-13
40
2.0000000000000022
210
-3.2297397080004535e-16
220
3.2297397080004525e-16
230
1
0
CIRCLE
5
149
100
AcDbEntity
8
0
100
AcDbCircle
10
191.99999999999994
20
176.50000268220901
30
9.2855016605013094e-14
40
2.0000000000000022
210
-3.2297397080004535e-16
220
3.2297397080004525e-16
230
1
0
CIRCLE
5
150
100
AcDbEntity
8
0
100
AcDbCircle
10
191.99999999999994
20
151.50000268220901
30
1.0092936587501422e-13
40
2.0000000000000022
210
-3.2297397080004535e-16
220
3.2297397080004525e-16
230
1
0
CIRCLE
5
151
100
AcDbEntity
8
0
100
AcDbCircle
10
191.99999999999994
20
136.50000268220901
30
1.0577397543701492e-13
40
2.0000000000000022
210
-3.2297397080004535e-16
220
3.2297397080004525e-16
230
1
0
CIRCLE
5
152
100
AcDbEntity
8
0
100
AcDbCircle
10
191.99999999999994
20
181.50000268220901
30
9.1240146751012871e-14
40
2.0000000000000022
210
-3.2297397080004535e-16
220
3.2297397080004525e-16
230
1
0
CIRCLE
5
153
100
AcDbEntity
8
0
100
AcDbCircle
10
191.99999999999994
20
131.50000268220901
30
1.0738884529101514e-13
40
2.0000000000000022
210
-3.2297397080004535e-16
220
3.2297397080004525e-16
230
1
0
CIRCLE
5
154
100
AcDbEntity
8
0
100
AcDbCircle
10
191.99999999999994
20
106.500002682209
30
1.1546319456101628e-13
40
2.0000000000000022
210
-3.2297397080004535e-16
220
3.2297397080004525e-16
230
1
0
CIRCLE
5
155
100
AcDbEntity
8
0
100
AcDbCircle
10
191.99999999999994
20
111.500002682209
30
1.1384832470701603e-13
40
2.0000000000000022
210
-3.2297397080004535e-16
220
3.2297397080004525e-16
230
1
0
CIRCLE
5
156
100
AcDbEntity
8
0
100
AcDbCircle
10
191.99999999999994
20
166.50000268220901
30
9.6084756313013552e-14
40
2.0000000000000022
210
-3.2297397080004535e-16
220
3.2297397080004525e-16
230
1
0
CIRCLE
5
157
100
AcDbEntity
8
0
100
AcDbCircle
10
191.99999999999994
20
161.50000268220901
30
9.7699626167013776e-14
40
2.0000000000000022
210
-3.2297397080004535e-16
220
3.2297397080004525e-16
230
1
0
CIRCLE
5
158
100
AcDbEntity
8
0
100
AcDbCircle
10
192.00000000000003
20
76.500002682208986
30
1.2515241368501764e-13
40
2.0000000000000022
210
-3.2297397080004535e-16
220
3.2297397080004525e-16
230
1
0
CIRCLE
5
159
100
AcDbEntity
8
0
100
AcDbCircle
10
191.99999999999994
20
171.50000268220901
30
9.4469886459013329e-14
40
2.0000000000000022
210
-3.2297397080004535e-16
220
3.2297397080004525e-16
230
1
0
CIRCLE
5
160
100
AcDbEntity
8
0
100
AcDbCircle
10
216.99999999999994
20
96.500002682209001
30
1.2676728353901787e-13
40
2.0000000000000022
210
-3.2297397080004535e-16
220
3.2297397080004525e-16
230
1
0
CIRCLE
5
161
100
AcDbEntity
8
0
100
AcDbCircle
10
216.99999999999994
20
151.50000268220901
30
1.0900371514501538e-13
40
2.0000000000000022
210
-3.2297397080004535e-16
220
3.2297397080004525e-16
230
1
0
CIRCLE
5
162
100
AcDbEntity
8
0
100
AcDbCircle
10
216.99999999999994
20
106.500002682209
30
1.2353754383101742e-13
40
2.0000000000000022
210
-3.2297397080004535e-16
220
3.2297397080004525e-16
230
1
0
CIRCLE
5
163
100
AcDbEntity
8
0
100
AcDbCircle
10
217.00000000000003
20
91.500002682209001
30
1.2838215339301809e-13
40
2.0000000000000022
210
-3.2297397080004535e-16
220
3.2297397080004525e-16
230
1
0
CIRCLE
5
164
100
AcDbEntity
8
0
100
AcDbCircle
10
211.99999999999994
20
131.50000268220901
30
1.1384832470701606e-13
40
2.0000000000000022
210
-3.2297397080004535e-16
220
3.2297397080004525e-16
230
1
0
CIRCLE
5
165
100
AcDbEntity
8
0
100
AcDbCircle
10
211.99999999999994
20
176.50000268220901
30
9.9314496021013999e-14
40
2.0000000000000022
210
-3.2297397080004535e-16
220
3.2297397080004525e-16
230
1
0
CIRCLE
5
166
100
AcDbEntity
8
0
100
AcDbCircle
10
212.00000000000003
20
76.500002682209001
30
1.3161189310101854e-13
40
2.0000000000000022
210
-3.2297397080004535e-16
220
3.2297397080004525e-16
230
1
0
CIRCLE
5
167
100
AcDbEntity
8
0
100
AcDbCircle
10
211.99999999999994
20
101.500002682209
30
1.2353754383101742e-13
40
2.0000000000000022
210
-3.2297397080004535e-16
220
3.2297397080004525e-16
230
1
0
CIRCLE
5
168
100
AcDbEntity
8
0
100
AcDbCircle
10
216.99999999999994
20
111.500002682209
30
1.2192267397701717e-13
40
2.0000000000000022
210
-3.2297397080004535e-16
220
3.2297397080004525e-16
230
1
0
CIRCLE
5
169
100
AcDbEntity
8
0
100
AcDbCircle
10
211.99999999999994
20
116.500002682209
30
1.1869293426901673e-13
40
2.0000000000000022
210
-3.2297397080004535e-16
220
3.2297397080004525e-16
230
1
0
CIRCLE
5
170
100
AcDbEntity
8
0
100
AcDbCircle
10
211.99999999999994
20
96.500002682209001
30
1.2515241368501764e-13
40
2.0000000000000022
210
-3.2297397080004535e-16
220
3.2297397080004525e-16
230
1
0
CIRCLE
5
171
100
AcDbEntity
8
0
100
AcDbCircle
10
211.99999999999994
20
181.50000268220901
30
9.7699626167013776e-14
40
2.0000000000000022
210
-3.2297397080004535e-16
220
3.2297397080004525e-16
230
1
0
CIRCLE
5
172
100
AcDbEntity
8
0
100
AcDbCircle
10
211.99999999999994
20
141.50000268220901
30
1.106185849990156e-13
40
2.0000000000000022
210
-3.2297397080004535e-16
220
3.2297397080004525e-16
230
1
0
CIRCLE
5
173
100
AcDbEntity
8
0
100
AcDbCircle
10
211.99999999999994
20
171.50000268220901
30
1.0092936587501422e-13
40
2.0000000000000022
210
-3.2297397080004535e-16
220
3.2297397080004525e-16
230
1
0
CIRCLE
5
174
100
AcDbEntity
8
0
100
AcDbCircle
10
211.99999999999994
20
146.50000268220901
30
1.0900371514501538e-13
40
2.0000000000000022
210
-3.2297397080004535e-16
220
3.2297397080004525e-16
230
1
0
CIRCLE
5
175
100
AcDbEntity
8
0
100
AcDbCircle
10
211.99999999999994
20
121.500002682209
30
1.170780644150165e-13
40
2.0000000000000022
210
-3.2297397080004535e-16
220
3.2297397080004525e-16
230
1
0
CIRCLE
5
176
100
AcDbEntity
8
0
100
AcDbCircle
10
216.99999999999994
20
116.500002682209
30
1.2030780412301695e-13
40
2.0000000000000022
210
-3.2297397080004535e-16
220
3.2297397080004525e-16
230
1
0
CIRCLE
5
177
100
AcDbEntity
8
0
100
AcDbCircle
10
217.00000000000003
20
86.500002682209001
30
1.2999702324701831e-13
40
2.0000000000000022
210
-3.2297397080004535e-16
220
3.2297397080004525e-16
230
1
0
CIRCLE
5
178
100
AcDbEntity
8
0
100
AcDbCircle
10
216.99999999999994
20
176.50000268220901
30
1.0092936587501422e-13
40
2.0000000000000022
210
-3.2297397080004535e-16
220
3.2297397080004525e-16
230
1
0
CIRCLE
5
179
100
AcDbEntity
8
0
100
AcDbCircle
10
211.99999999999994
20
151.50000268220901
30
1.0738884529101514e-13
40
2.0000000000000022
210
-3.2297397080004535e-16
220
3.2297397080004525e-16
230
1
0
CIRCLE
5
180
100
AcDbEntity
8
0
100
AcDbCircle
10
216.99999999999994
20
146.50000268220901
30
1.1061858499901559e-13
40
2.0000000000000022
210
-3.2297397080004535e-16
220
3.2297397080004525e-16
230
1
0
CIRCLE
5
181
100
AcDbEntity
8
0
100
AcDbCircle
10
217.00000000000003
20
71.500002682209001
30
1.3484163280901901e-13
40
2.0000000000000022
210
-3.2297397080004535e-16
220
3.2297397080004525e-16
230
1
0
CIRCLE
5
182
100
AcDbEntity
8
0
100
AcDbCircle
10
217.00000000000003
20
76.500002682209001
30
1.3322676295501876e-13
40
2.0000000000000022
210
-3.2297397080004535e-16
220
3.2297397080004525e-16
230
1
0
CIRCLE
5
183
100
AcDbEntity
8
0
100
AcDbCircle
10
216.99999999999994
20
101.500002682209
30
1.2515241368501764e-13
40
2.0000000000000022
210
-3.2297397080004535e-16
220
3.2297397080004525e-16
230
1
0
CIRCLE
5
184
100
AcDbEntity
8
0
100
AcDbCircle
10
216.99999999999994
20
121.500002682209
30
1.1869293426901673e-13
40
2.0000000000000022
210
-3.2297397080004535e-16
220
3.2297397080004525e-16
230
1
0
CIRCLE
5
185
100
AcDbEntity
8
0
100
AcDbCircle
10
217.00000000000003
20
81.500002682209001
30
1.3161189310101854e-13
40
2.0000000000000022
210
-3.2297397080004535e-16
220
3.2297397080004525e-16
230
1
0
CIRCLE
5
186
100
AcDbEntity
8
0
100
AcDbCircle
10
211.99999999999994
20
126.500002682209
30
1.1546319456101628e-13
40
2.0000000000000022
210
-3.2297397080004535e-16
220
3.2297397080004525e-16
230
1
0
CIRCLE
5
187
100
AcDbEntity
8
0
100
AcDbCircle
10
216.99999999999994
20
131.50000268220901
30
1.1546319456101628e-13
40
2.0000000000000022
210
-3.2297397080004535e-16
220
3.2297397080004525e-16
230
1
0
CIRCLE
5
188
100
AcDbEntity
8
0
100
AcDbCircle
10
216.99999999999994
20
161.50000268220901
30
1.0577397543701492e-13
40
2.0000000000000022
210
-3.2297397080004535e-16
220
3.2297397080004525e-16
230
1
0
CIRCLE
5
189
100
AcDbEntity
8
0
100
AcDbCircle
10
211.99999999999994
20
106.500002682209
30
1.2192267397701717e-13
40
2.0000000000000022
210
-3.2297397080004535e-16
220
3.2297397080004525e-16
230
1
0
CIRCLE
5
190
100
AcDbEntity
8
0
100
AcDbCircle
10
216.99999999999994
20
166.50000268220901
30
1.0415910558301468e-13
40
2.0000000000000022
210
-3.2297397080004535e-16
220
3.2297397080004525e-16
230
1
0
CIRCLE
5
191
100
AcDbEntity
8
0
100
AcDbCircle
10
216.99999999999994
20
156.50000268220901
30
1.0738884529101514e-13
40
2.0000000000000022
210
-3.2297397080004535e-16
220
3.2297397080004525e-16
230
1
0
CIRCLE
5
192
100
AcDbEntity
8
0
100
AcDbCircle
10
216.99999999999994
20
126.500002682209
30
1.170780644150165e-13
40
2.0000000000000022
210
-3.2297397080004535e-16
220
3.2297397080004525e-16
230
1
0
CIRCLE
5
193
100
AcDbEntity
8
0
100
AcDbCircle
10
211.99999999999994
20
136.50000268220901
30
1.1223345485301583e-13
40
2.0000000000000022
210
-3.2297397080004535e-16
220
3.2297397080004525e-16
230
1
0
CIRCLE
5
194
100
AcDbEntity
8
0
100
AcDbCircle
10
211.99999999999994
20
156.50000268220901
30
1.0577397543701492e-13
40
2.0000000000000022
210
-3.2297397080004535e-16
220
3.2297397080004525e-16
230
1
0
CIRCLE
5
195
100
AcDbEntity
8
0
100
AcDbCircle
10
211.99999999999994
20
111.500002682209
30
1.2030780412301695e-13
40
2.0000000000000022
210
-3.2297397080004535e-16
220
3.2297397080004525e-16
230
1
0
CIRCLE
5
196
100
AcDbEntity
8
0
100
AcDbCircle
10
212.00000000000003
20
91.500002682209001
30
1.2676728353901787e-13
40
2.0000000000000022
210
-3.2297397080004535e-16
220
3.2297397080004525e-16
230
1
0
CIRCLE
5
197
100
AcDbEntity
8
0
100
AcDbCircle
10
216.99999999999994
20
136.50000268220901
30
1.1384832470701606e-13
40
2.0000000000000022
210
-3.2297397080004535e-16
220
3.2297397080004525e-16
230
1
0
CIRCLE
5
198
100
AcDbEntity
8
0
100
AcDbCircle
10
211.99999999999994
20
166.50000268220901
30
1.0254423572901446e-13
40
2.0000000000000022
210
-3.2297397080004535e-16
220
3.2297397080004525e-16
230
1
0
CIRCLE
5
199
100
AcDbEntity
8
0
100
AcDbCircle
10
212.00000000000003
20
86.500002682209001
30
1.2838215339301809e-13
40
2.0000000000000022
210
-3.2297397080004535e-16
220
3.2297397080004525e-16
230
1
0
CIRCLE
5
200
100
AcDbEntity
8
0
100
AcDbCircle
10
216.99999999999994
20
171.50000268220901
30
1.0254423572901446e-13
40
2.0000000000000022
210
-3.2297397080004535e-16
220
3.2297397080004525e-16
230
1
0
CIRCLE
5
201
100
AcDbEntity
8
0
100
AcDbCircle
10
212.00000000000003
20
71.500002682209001
30
1.3322676295501876e-13
40
2.0000000000000022
210
-3.2297397080004535e-16
220
3.2297397080004525e-16
230
1
0
CIRCLE
5
202
100
AcDbEntity
8
0
100
AcDbCircle
10
212.00000000000003
20
81.500002682209001
30
1.2999702324701831e-13
40
2.0000000000000022
210
-3.2297397080004535e-16
220
3.2297397080004525e-16
230
1
0
CIRCLE
5
203
100
AcDbEntity
8
0
100
AcDbCircle
10
211.99999999999994
20
161.50000268220901
30
1.0415910558301468e-13
40
2.0000000000000022
210
-3.2297397080004535e-16
220
3.2297397080004525e-16
230
1
0
CIRCLE
5
204
100
AcDbEntity
8
0
100
AcDbCircle
10
216.99999999999994
20
181.50000268220901
30
9.9314496021013999e-14
40
2.0000000000000022
210
-3.2297397080004535e-16
220
3.2297397080004525e-16
230
1
0
CIRCLE
5
205
100
AcDbEntity
8
0
100
AcDbCircle
10
216.99999999999994
20
141.50000268220901
30
1.1223345485301583e-13
40
2.0000000000000022
210
-3.2297397080004535e-16
220
3.2297397080004525e-16
230
1
0
CIRCLE
5
206
100
AcDbEntity
8
0
100
AcDbCircle
10
206.99999999999994
20
181.50000268220901
30
9.6084756313013552e-14
40
2.0000000000000022
210
-3.2297397080004535e-16
220
3.2297397080004525e-16
230
1
0
CIRCLE
5
207
100
AcDbEntity
8
0
100
AcDbCircle
10
206.99999999999994
20
96.500002682209001
30
1.2353754383101742e-13
40
2.0000000000000022
210
-3.2297397080004535e-16
220
3.2297397080004525e-16
230
1
0
CIRCLE
5
208
100
AcDbEntity
8
0
100
AcDbCircle
10
206.99999999999994
20
111.500002682209
30
1.1869293426901673e-13
40
2.0000000000000022
210
-3.2297397080004535e-16
220
3.2297397080004525e-16
230
1
0
CIRCLE
5
209
100
AcDbEntity
8
0
100
AcDbCircle
10
207.00000000000003
20
76.500002682209001
30
1.2999702324701831e-13
40
2.0000000000000022
210
-3.2297397080004535e-16
220
3.2297397080004525e-16
230
1
0
CIRCLE
5
210
100
AcDbEntity
8
0
100
AcDbCircle
10
207.00000000000003
20
71.500002682209001
30
1.3161189310101854e-13
40
2.0000000000000022
210
-3.2297397080004535e-16
220
3.2297397080004525e-16
230
1
0
CIRCLE
5
211
100
AcDbEntity
8
0
100
AcDbCircle
10
201.99999999999994
20
146.50000268220901
30
1.0577397543701492e-13
40
2.0000000000000022
210
-3.2297397080004535e-16
220
3.2297397080004525e-16
230
1
0
CIRCLE
5
212
100
AcDbEntity
8
0
100
AcDbCircle
10
206.99999999999994
20
101.500002682209
30
1.2192267397701717e-13
40
2.0000000000000022
210
-3.2297397080004535e-16
220
3.2297397080004525e-16
230
1
0
CIRCLE
5
213
100
AcDbEntity
8
0
100
AcDbCircle
10
201.99999999999994
20
151.50000268220901
30
1.0415910558301468e-13
40
2.0000000000000022
210
-3.2297397080004535e-16
220
3.2297397080004525e-16
230
1
0
CIRCLE
5
214
100
AcDbEntity
8
0
100
AcDbCircle
10
206.99999999999994
20
171.50000268220901
30
9.9314496021013999e-14
40
2.0000000000000022
210
-3.2297397080004535e-16
220
3.2297397080004525e-16
230
1
0
CIRCLE
5
215
100
AcDbEntity
8
0
100
AcDbCircle
10
206.99999999999994
20
141.50000268220901
30
1.0900371514501538e-13
40
2.0000000000000022
210
-3.2297397080004535e-16
220
3.2297397080004525e-16
230
1
0
CIRCLE
5
216
100
AcDbEntity
8
0
100
AcDbCircle
10
207.00000000000003
20
81.500002682209001
30
1.2838215339301809e-13
40
2.0000000000000022
210
-3.2297397080004535e-16
220
3.2297397080004525e-16
230
1
0
CIRCLE
5
217
100
AcDbEntity
8
0
100
AcDbCircle
10
201.99999999999994
20
176.50000268220901
30
9.6084756313013552e-14
40
2.0000000000000022
210
-3.2297397080004535e-16
220
3.2297397080004525e-16
230
1
0
CIRCLE
5
218
100
AcDbEntity
8
0
100
AcDbCircle
10
201.99999999999994
20
126.500002682209
30
1.1223345485301583e-13
40
2.0000000000000022
210
-3.2297397080004535e-16
220
3.2297397080004525e-16
230
1
0
CIRCLE
5
219
100
AcDbEntity
8
0
100
AcDbCircle
10
201.99999999999994
20
101.500002682209
30
1.2030780412301695e-13
40
2.0000000000000022
210
-3.2297397080004535e-16
220
3.2297397080004525e-16
230
1
0
CIRCLE
5
220
100
AcDbEntity
8
0
100
AcDbCircle
10
201.99999999999994
20
106.500002682209
30
1.1869293426901673e-13
40
2.0000000000000022
210
-3.2297397080004535e-16
220
3.2297397080004525e-16
230
1
0
CIRCLE
5
221
100
AcDbEntity
8
0
100
AcDbCircle
10
206.99999999999994
20
106.500002682209
30
1.2030780412301695e-13
40
2.0000000000000022
210
-3.2297397080004535e-16
220
3.2297397080004525e-16
230
1
0
CIRCLE
5
222
100
AcDbEntity
8
0
100
AcDbCircle
10
201.99999999999994
20
96.500002682209001
30
1.2192267397701717e-13
40
2.0000000000000022
210
-3.2297397080004535e-16
220
3.2297397080004525e-16
230
1
0
CIRCLE
5
223
100
AcDbEntity
8
0
100
AcDbCircle
10
201.99999999999994
20
116.500002682209
30
1.1546319456101628e-13
40
2.0000000000000022
210
-3.2297397080004535e-16
220
3.2297397080004525e-16
230
1
0
CIRCLE
5
224
100
AcDbEntity
8
0
100
AcDbCircle
10
206.99999999999994
20
126.500002682209
30
1.1384832470701606e-13
40
2.0000000000000022
210
-3.2297397080004535e-16
220
3.2297397080004525e-16
230
1
0
CIRCLE
5
225
100
AcDbEntity
8
0
100
AcDbCircle
10
201.99999999999994
20
111.500002682209
30
1.170780644150165e-13
40
2.0000000000000022
210
-3.2297397080004535e-16
220
3.2297397080004525e-16
230
1
0
CIRCLE
5
226
100
AcDbEntity
8
0
100
AcDbCircle
10
202.00000000000003
20
71.500002682208986
30
1.2999702324701831e-13
40
2.0000000000000022
210
-3.2297397080004535e-16
220
3.2297397080004525e-16
230
1
0
CIRCLE
5
227
100
AcDbEntity
8
0
100
AcDbCircle
10
206.99999999999994
20
121.500002682209
30
1.1546319456101628e-13
40
2.0000000000000022
210
-3.2297397080004535e-16
220
3.2297397080004525e-16
230
1
0
CIRCLE
5
228
100
AcDbEntity
8
0
100
AcDbCircle
10
207.00000000000003
20
86.500002682209001
30
1.2676728353901787e-13
40
2.0000000000000022
210
-3.2297397080004535e-16
220
3.2297397080004525e-16
230
1
0
CIRCLE
5
229
100
AcDbEntity
8
0
100
AcDbCircle
10
206.99999999999994
20
131.50000268220901
30
1.1223345485301583e-13
40
2.0000000000000022
210
-3.2297397080004535e-16
220
3.2297397080004525e-16
230
1
0
CIRCLE
5
230
100
AcDbEntity
8
0
100
AcDbCircle
10
201.99999999999994
20
121.500002682209
30
1.1384832470701606e-13
40
2.0000000000000022
210
-3.2297397080004535e-16
220
3.2297397080004525e-16
230
1
0
CIRCLE
5
231
100
AcDbEntity
8
0
100
AcDbCircle
10
206.99999999999994
20
116.500002682209
30
1.170780644150165e-13
40
2.0000000000000022
210
-3.2297397080004535e-16
220
3.2297397080004525e-16
230
1
0
CIRCLE
5
232
100
AcDbEntity
8
0
100
AcDbCircle
10
206.99999999999994
20
136.50000268220901
30
1.106185849990156e-13
40
2.0000000000000022
210
-3.2297397080004535e-16
220
3.2297397080004525e-16
230
1
0
CIRCLE
5
233
100
AcDbEntity
8
0
100
AcDbCircle
10
201.99999999999994
20
141.50000268220901
30
1.0738884529101515e-13
40
2.0000000000000022
210
-3.2297397080004535e-16
220
3.2297397080004525e-16
230
1
0
CIRCLE
5
234
100
AcDbEntity
8
0
100
AcDbCircle
10
202.00000000000003
20
76.500002682208986
30
1.2838215339301809e-13
40
2.0000000000000022
210
-3.2297397080004535e-16
220
3.2297397080004525e-16
230
1
0
CIRCLE
5
235
100
AcDbEntity
8
0
100
AcDbCircle
10
201.99999999999994
20
136.50000268220901
30
1.0900371514501538e-13
40
2.0000000000000022
210
-3.2297397080004535e-16
220
3.2297397080004525e-16
230
1
0
CIRCLE
5
236
100
AcDbEntity
8
0
100
AcDbCircle
10
206.99999999999994
20
151.50000268220901
30
1.0577397543701492e-13
40
2.0000000000000022
210
-3.2297397080004535e-16
220
3.2297397080004525e-16
230
1
0
CIRCLE
5
237
100
AcDbEntity
8
0
100
AcDbCircle
10
207.00000000000003
20
91.500002682209001
30
1.2515241368501764e-13
40
2.0000000000000022
210
-3.2297397080004535e-16
220
3.2297397080004525e-16
230
1
0
CIRCLE
5
238
100
AcDbEntity
8
0
100
AcDbCircle
10
206.99999999999994
20
146.50000268220901
30
1.0738884529101514e-13
40
2.0000000000000022
210
-3.2297397080004535e-16
220
3.2297397080004525e-16
230
1
0
CIRCLE
5
239
100
AcDbEntity
8
0
100
AcDbCircle
10
201.99999999999994
20
131.50000268220901
30
1.106185849990156e-13
40
2.0000000000000022
210
-3.2297397080004535e-16
220
3.2297397080004525e-16
230
1
0
CIRCLE
5
240
100
AcDbEntity
8
0
100
AcDbCircle
10
206.99999999999994
20
176.50000268220901
30
9.7699626167013776e-14
40
2.0000000000000022
210
-3.2297397080004535e-16
220
3.2297397080004525e-16
230
1
0
CIRCLE
5
241
100
AcDbEntity
8
0
100
AcDbCircle
10
206.99999999999994
20
156.50000268220901
30
1.0415910558301468e-13
40
2.0000000000000022
210
-3.2297397080004535e-16
220
3.2297397080004525e-16
230
1
0
CIRCLE
5
242
100
AcDbEntity
8
0
100
AcDbCircle
10
201.99999999999994
20
166.50000268220901
30
9.9314496021013999e-14
40
2.0000000000000022
210
-3.2297397080004535e-16
220
3.2297397080004525e-16
230
1
0
CIRCLE
5
243
100
AcDbEntity
8
0
100
AcDbCircle
10
206.99999999999994
20
161.50000268220901
30
1.0254423572901447e-13
40
2.0000000000000022
210
-3.2297397080004535e-16
220
3.2297397080004525e-16
230
1
0
CIRCLE
5
244
100
AcDbEntity
8
0
100
AcDbCircle
10
206.99999999999994
20
166.50000268220901
30
1.0092936587501422e-13
40
2.0000000000000022
210
-3.2297397080004535e-16
220
3.2297397080004525e-16
230
1
0
CIRCLE
5
245
100
AcDbEntity
8
0
100
AcDbCircle
10
201.99999999999994
20
181.50000268220901
30
9.4469886459013329e-14
40
2.0000000000000022
210
-3.2297397080004535e-16
220
3.2297397080004525e-16
230
1
0
CIRCLE
5
246
100
AcDbEntity
8
0
100
AcDbCircle
10
201.99999999999994
20
161.50000268220901
30
1.0092936587501422e-13
40
2.0000000000000022
210
-3.2297397080004535e-16
220
3.2297397080004525e-16
230
1
0
CIRCLE
5
247
100
AcDbEntity
8
0
100
AcDbCircle
10
201.99999999999994
20
171.50000268220901
30
9.7699626167013776e-14
40
2.0000000000000022
210
-3.2297397080004535e-16
220
3.2297397080004525e-16
230
1
0
CIRCLE
5
248
100
AcDbEntity
8
0
100
AcDbCircle
10
201.99999999999994
20
156.50000268220901
30
1.0254423572901447e-13
40
2.0000000000000022
210
-3.2297397080004535e-16
220
3.2297397080004525e-16
230
1
0
CIRCLE
5
249
100
AcDbEntity
8
0
100
AcDbCircle
10
197.00000000000003
20
86.500002682209001
30
1.2353754383101742e-13
40
6.5
210
-3.2297397080004535e-16
220
3.2297397080004525e-16
230
1
0
LINE
5
250
100
AcDbEntity
8
0
100
AcDbLine
10
140
20
-5
30
0
11
140
21
-10
31
0
0
LINE
5
251
100
AcDbEntity
8
0
100
AcDbLine
10
140
20
-10
30
0
11
11.999999999999993
21
-10
31
0
0
LINE
5
252
100
AcDbEntity
8
0
100
AcDbLine
10
11.999999999999993
20
-10
30
0
11
11.999999999999993
21
-5
31
0
0
LWPOLYLINE
5
253
100
AcDbEntity
8
0
100
AcDbPolyline
90
4
70
1
43
0.0
10
31.999999999999993
20
-5
10
31.999999999999993
20
0
10
120
20
0
10
120
20
-5
0
LINE
5
254
100
AcDbEntity
8
0
100
AcDbLine
10
-8.0000000000000071
20
185
30
0
11
-8.0000000000000071
21
180
31
0
0
LINE
5
255
100
AcDbEntity
8
0
100
AcDbLine
10
-8.0000000000000071
20
180
30
0
11
-13.000000000000007
21
180
31
0
0
LINE
5
256
100
AcDbEntity
8
0
100
AcDbLine
10
-13.000000000000007
20
180
30
0
11
-13.000000000000007
21
170
31
0
0
LINE
5
257
100
AcDbEntity
8
0
100
AcDbLine
10
-13.000000000000007
20
170
30
0
11
-8.0000000000000071
21
170
31
0
0
LINE
5
258
100
AcDbEntity
8
0
100
AcDbLine
10
-8.0000000000000071
20
185
30
0
11
-8.0000000000000071
21
180
31
0
0
LINE
5
259
100
AcDbEntity
8
0
100
AcDbLine
10
-8.0000000000000071
20
170
30
0
11
-8.0000000000000071
21
155
31
0
0
LINE
5
260
100
AcDbEntity
8
0
100
AcDbLine
10
140
20
0
30
0
11
140
21
-5
31
0
0
LINE
5
261
100
AcDbEntity
8
0
100
AcDbLine
10
11.999999999999993
20
-5
30
0
11
11.999999999999993
21
0
31
0
0
LWPOLYLINE
5
262
100
AcDbEntity
8
0
100
AcDbPolyline
90
12
70
1
43
0.0
10
-316
20
192.00000268220893
10
-188
20
192.00000268220893
10
-188
20
172.00000268220893
10
-183
20
172.00000268220893
10
-183
20
-2.9999973177910633
10
-188
20
-2.9999973177910633
10
-188
20
-22.999997317791063
10
-316
20
-22.999997317791063
10
-316
20
-2.9999973177910633
10
-321
20
-2.9999973177910633
10
-321
20
172.00000268220893
10
-316
20
172.00000268220893
0
LWPOLYLINE
5
263
100
AcDbEntity
8
0
100
AcDbPolyline
90
17
70
1
43
0.0
10
-381
20
192.00000268220893
10
-327
20
192.00000268220893
10
-316
20
192.00000268220893
10
-316
20
172.00000268220893
10
-321
20
172.00000268220893
10
-321
20
-2.9999973177910633
10
-316
20
-2.9999973177910633
10
-316
20
-22.999997317791063
10
-321
20
-22.999997317791063
10
-376
20
-22.999997317791113
42
-0.41421356237309231
10
-386
20
-12.999997317791061
10
-386
20
7.0000026822101376
10
-381.00000490248203
20
7.0000026822089367
10
-381.00000490248203
20
27.000002682208937
10
-386.00000490248203
20
27.000002682208937
10
-386
20
152.00000268220893
10
-381
20
152.00000268220893
0
LWPOLYLINE
5
264
100
AcDbEntity
8
0
100
AcDbPolyline
90
6
70
1
43
0.0
10
140
20
145
10
140
20
44.999999999999964
10
150
20
44.999999999999964
42
0.41421356237309503
10
160
20
54.999999999999964
10
160
20
135
42
0.41421356237309503
10
150
20
145
0
CIRCLE
5
265
100
AcDbEntity
8
0
100
AcDbCircle
10
150
20
54.999999999999964
30
0
40
1.0000000000000115
210
0
220
0
230
1
0
CIRCLE
5
266
100
AcDbEntity
8
0
100
AcDbCircle
10
150
20
135
30
0
40
1.0000000000000144
210
0
220
0
230
1
0
LINE
5
267
100
AcDbEntity
8
0
100
AcDbLine
10
140
20
44.999999999999964
30
0
11
140
21
145
31
0
0
LWPOLYLINE
5
268
100
AcDbEntity
8
0
100
AcDbPolyline
90
4
70
1
43
0.0
10
125
20
132
10
126
20
132
10
126
20
127
10
125
20
127
0
LWPOLYLINE
5
269
100
AcDbEntity
8
0
100
AcDbPolyline
90
4
70
1
43
0.0
10
26.999999999999993
20
132
10
25.999999999999996
20
132
10
25.999999999999996
20
127
10
26.999999999999993
20
127
0
CIRCLE
5
270
100
AcDbEntity
8
0
100
AcDbCircle
10
1.999999999999984
20
155
30
0
40
2
210
0
220
0
230
1
0
CIRCLE
5
271
100
AcDbEntity
8
0
100
AcDbCircle
10
150
20
155
30
0
40
1.9999999999999929
210
0
220
0
230
1
0
LWPOLYLINE
5
272
100
AcDbEntity
8
0
100
AcDbPolyline
90
5
70
1
43
0.0
10
12.000000000000028
20
60.000002905726468
10
12.000000000000028
20
50.000002905726397
10
-7.9999999999999716
20
50.000002905726397
10
-8.0000000000000426
20
55.000002905726397
42
-0.41421356237309503
10
-2.9999999999999716
20
60.000002905726468
0
LWPOLYLINE
5
273
100
AcDbEntity
8
0
100
AcDbPolyline
90
4
70
1
43
0.0
10
-359.0000015234952
20
95.500004713535361
10
-363.00000076174769
20
92.500003697872145
42
2.9999991238117643
10
-363.00000028967872
20
86.500002295970745
10
-359.00000057935733
20
83.500001909732504
42
-2.999999123811782
0
LWPOLYLINE
5
274
100
AcDbEntity
8
0
100
AcDbPolyline
90
8
70
1
43
0.0
10
-353.00000000000006
20
88.00000268220893
10
-353.00000000000006
20
99.50000268220893
10
-348.00000000000006
20
99.50000268220893
10
-348.00000000000006
20
88.00000268220893
42
0.99999999999999989
10
-341
20
88.00000268220893
10
-341.00000000000011
20
99.50000268220893
10
-336.00000000000011
20
99.50000268220893
10
-336
20
88.00000268220893
42
-0.99999999999999989
0
LWPOLYLINE
5
275
100
AcDbEntity
8
0
100
AcDbPolyline
90
17
70
1
43
0.0
10
-183
20
172.00000268220893
10
-188
20
172.00000268220893
10
-188
20
192.00000268220893
10
-177
20
192.00000268220893
10
-123
20
192.00000268220893
10
-123
20
152.00000268220893
10
-118
20
152.00000268220893
10
-118
20
27.000002682208937
10
-123
20
27.000002682208937
10
-123
20
7.0000026822089367
10
-118
20
7.0000026822089367
10
-118.00000000000004
20
-12.999997317791063
42
-0.41421356237309193
10
-128
20
-22.999997317791063
10
-177
20
-22.999997317791063
10
-188
20
-22.999997317791063
10
-188
20
-2.9999973177910633
10
-183
20
-2.9999973177910633
0
LWPOLYLINE
5
276
100
AcDbEntity
8
0
100
AcDbPolyline
90
4
70
1
43
0.0
10
-8.0000000000000071
20
185
10
-108
20
185
10
-108
20
190
10
-8.0000000000000071
20
190
0
LWPOLYLINE
5
277
100
AcDbEntity
8
0
100
AcDbPolyline
90
5
70
1
43
0.0
10
-2.9999999999999716
20
40.000002905726433
10
12.000000000000028
20
40.000002905726433
10
12.000000000000028
20
50.000002905726397
10
-7.9999999999999716
20
50.000002905726397
10
-7.9999999999999716
20
45.000002905726433
42
0.41421356237309503
0
LWPOLYLINE
5
278
100
AcDbEntity
8
0
100
AcDbPolyline
90
4
70
1
43
0.0
10
-139.5000015234952
20
103.00000471353539
10
-143.50000076174763
20
100.00000369787213
42
2.9999991238117842
10
-143.50000028967867
20
94.000002295970717
10
-139.50000057935736
20
91.000001909732504
42
-2.9999991238117709
0
LWPOLYLINE
5
279
100
AcDbEntity
8
0
100
AcDbPolyline
90
8
70
1
43
0.0
10
-144
20
70.500002682208958
10
-144.00000000000003
20
82.00000268220893
10
-139.00000000000003
20
82.00000268220893
10
-139
20
70.500002682208958
42
-0.99999999999999989
10
-156
20
70.500002682208958
10
-156
20
82.00000268220893
10
-151
20
82.00000268220893
10
-151
20
70.500002682208958
42
0.99999999999999989
0
LWPOLYLINE
5
280
100
AcDbEntity
8
0
100
AcDbPolyline
90
8
70
1
43
0.0
10
-8.0000000000000071
20
-10
10
102.00000000000004
20
-10
10
102.00000000000004
20
-14.999997317790985
10
97.000000000000043
20
-14.999997317790985
10
97.000000000000043
20
-24.999997466802597
10
102.00000000000004
20
-24.999997466802597
10
102.00000000000004
20
-30
10
11.999999999999977
20
-30
42
-0.41421356237309476
0
LINE
5
281
100
AcDbEntity
8
0
100
AcDbLine
10
-8.0000000000000071
20
-10
30
1.0658141036401505e-13
11
11.999999999999993
21
-10
31
1.0066022089934755e-13
0
LINE
5
282
100
AcDbEntity
8
0
100
AcDbLine
10
102.00000000000004
20
-10
30
7.401486830834379e-14
11
102.00000000000004
21
-14.999997317790985
31
7.5495164880417257e-14
0
LINE
5
283
100
AcDbEntity
8
0
100
AcDbLine
10
11.999999999999993
20
0
30
0
11
1.9999999999999929
21
0
31
0
0
LINE
5
284
100
AcDbEntity
8
0
100
AcDbLine
10
-7.1864831497222692
20
13.950762880744536
30
0
11
-7.1693802013616894
21
13.990066770974657
31
0
0
LINE
5
285
100
AcDbEntity
8
0
100
AcDbLine
10
2.0000999999999909
20
20
30
0
11
11.999999999999993
21
20
31
0
0
ARC
5
286
100
AcDbEntity
8
0
100
AcDbCircle
10
1.999999999999984
20
9.9999999999999911
30
0
40
9.9999999999999911
210
0
220
0
230
1
100
AcDbArc
50
156.72926796244894
51
270.00000000000006
0
ARC
5
287
100
AcDbEntity
8
0
100
AcDbCircle
10
2.0000999999999927
20
10
30
0
40
10
210
0
220
0
230
1
100
AcDbArc
50
90.000000000000014
51
156.48390425758396
0
LWPOLYLINE
5
288
100
AcDbEntity
8
0
100
AcDbPolyline
90
4
70
1
43
0.0
10
41.000000536441803
20
0
10
36.000000536441803
20
0
10
36.000000536441803
20
1.0000000149011612
10
41.000000536441803
20
1.0000000149011612
0
ARC
5
289
100
AcDbEntity
8
0
100
AcDbCircle
10
149.9999
20
10
30
0
40
9.9999999999999964
210
0
220
-0
230
1
100
AcDbArc
50
23.516095742416031
51
90
0
LINE
5
290
100
AcDbEntity
8
0
100
AcDbLine
10
159.18648314972225
20
13.950762880744536
30
0
11
159.16938020136169
21
13.990066770974657
31
0
0
ARC
5
291
100
AcDbEntity
8
0
100
AcDbCircle
10
150
20
9.9999999999999911
30
0
40
9.9999999999999911
210
0
220
0
230
1
100
AcDbArc
50
-90
51
23.270732037551092
0
LINE
5
292
100
AcDbEntity
8
0
100
AcDbLine
10
140
20
0
30
0
11
150
21
0
31
0
0
LINE
5
293
100
AcDbEntity
8
0
100
AcDbLine
10
149.9999
20
20
30
0
11
140
21
20
31
0
0
LINE
5
294
100
AcDbEntity
8
0
100
AcDbLine
10
110.9999994635582
20
1.0000000149011612
30
0
11
115.9999994635582
21
1.0000000149011612
31
0
0
LINE
5
295
100
AcDbEntity
8
0
100
AcDbLine
10
115.9999994635582
20
1.0000000149011612
30
0
11
115.9999994635582
21
0
31
0
0
LINE
5
296
100
AcDbEntity
8
0
100
AcDbLine
10
110.9999994635582
20
0
30
0
11
110.9999994635582
21
1.0000000149011612
31
0
0
CIRCLE
5
297
100
AcDbEntity
8
0
100
AcDbCircle
10
149.9999
20
10
30
0
40
1.9999999999999929
210
0
220
0
230
1
0
CIRCLE
5
298
100
AcDbEntity
8
0
100
AcDbCircle
10
2.0000999999999891
20
10
30
0
40
1.9999999999999929
210
0
220
0
230
1
0
LINE
5
299
100
AcDbEntity
8
0
100
AcDbLine
10
-118
20
152.00000268220893
30
0
11
-118
21
27.000002682208937
31
0
0
LWPOLYLINE
5
300
100
AcDbEntity
8
0
100
AcDbPolyline
90
8
70
1
43
0.0
10
1.9999998509884165
20
40.000002905726433
10
12.000000000000028
20
40.000002905726433
10
12.000000000000028
20
35
10
17.000000000000028
20
35
10
17.000000000000028
20
25
10
12.000000000000028
20
25
10
12.000000000000028
20
20.000002905726433
10
1.9999998509884165
20
20.000003203749657
42
-0.99999999999999989
0
CIRCLE
5
301
100
AcDbEntity
8
0
100
AcDbCircle
10
1.9999998509884165
20
30.000003054738045
30
0
40
1.0000000000000144
210
0
220
0
230
1
0
LWPOLYLINE
5
302
100
AcDbEntity
8
0
100
AcDbPolyline
90
8
70
1
43
0.0
10
17.000000000000028
20
125
10
12.000000000000028
20
125
10
12.000000000000028
20
130.00000290572646
10
1.9999998509884165
20
130.00000290572646
42
0.99999999999999989
10
1.9999998509884165
20
110.00000320374966
10
12.000000000000028
20
110.00000290572643
10
12.000000000000028
20
115
10
17.000000000000028
20
115
0
CIRCLE
5
303
100
AcDbEntity
8
0
100
AcDbCircle
10
1.9999998509884165
20
120.00000305473804
30
0
40
1.0000000000000144
210
0
220
0
230
1
0
LWPOLYLINE
5
304
100
AcDbEntity
8
0
100
AcDbPolyline
90
8
70
1
43
0.0
10
6.9999970942735601
20
59.999999850988388
10
6.9999970942735601
20
64.999999850988388
10
11.999999999999993
20
64.999999850988388
10
11.999999999999993
20
75
42
0.99999999999999989
10
-7.9999997019767832
20
75
10
-8.0000000000000071
20
64.999999850988388
10
-3.0000029057264399
20
64.999999850988388
10
-3.0000029057264399
20
59.999999850988388
0
LWPOLYLINE
5
305
100
AcDbEntity
8
0
100
AcDbPolyline
90
8
70
1
43
0.0
10
-2.9999998509883952
20
89.999999850988388
10
-7.9999969452619624
20
89.999999850988388
10
-7.9999966472387385
20
100
42
-0.99999999999999989
10
12.000003054738038
20
100
10
12.000003054738038
20
89.999999850988388
10
7.0000001490116048
20
89.999999850988388
10
7.0000001490116048
20
84.999999850988388
10
-2.9999998509883952
20
84.999999850988388
0
CIRCLE
5
306
100
AcDbEntity
8
0
100
AcDbCircle
10
2.0000001490116048
20
75
30
0
40
1.0000000000000142
210
0
220
0
230
1
0
CIRCLE
5
307
100
AcDbEntity
8
0
100
AcDbCircle
10
2.0000032037496496
20
100
30
0
40
1.0000000000000142
210
0
220
0
230
1
0
LINE
5
308
100
AcDbEntity
8
0
100
AcDbLine
10
140
20
25
30
0
11
135
21
25
31
0
0
LINE
5
309
100
AcDbEntity
8
0
100
AcDbLine
10
135
20
25
30
0
11
135
21
35
31
0
0
LINE
5
310
100
AcDbEntity
8
0
100
AcDbLine
10
135
20
35
30
0
11
140
21
35
31
0
0
LINE
5
311
100
AcDbEntity
8
0
100
AcDbLine
10
140
20
125
30
0
11
135
21
125
31
0
0
LINE
5
312
100
AcDbEntity
8
0
100
AcDbLine
10
135
20
125
30
0
11
135
21
115
31
0
0
LINE
5
313
100
AcDbEntity
8
0
100
AcDbLine
10
135
20
115
30
0
11
140
21
115
31
0
0
LINE
5
314
100
AcDbEntity
8
0
100
AcDbLine
10
140
20
20
30
0
11
140
21
25
31
0
0
LINE
5
315
100
AcDbEntity
8
0
100
AcDbLine
10
140
20
35
30
0
11
140
21
115
31
0
0
LINE
5
316
100
AcDbEntity
8
0
100
AcDbLine
10
140
20
125
30
0
11
140
21
145
31
0
0
LINE
5
317
100
AcDbEntity
8
0
100
AcDbLine
10
11.999999999999993
20
25
30
0
11
16.999999999999993
21
25
31
0
0
LINE
5
318
100
AcDbEntity
8
0
100
AcDbLine
10
16.999999999999993
20
35
30
0
11
11.999999999999993
21
35
31
0
0
LINE
5
319
100
AcDbEntity
8
0
100
AcDbLine
10
16.999999999999993
20
25
30
0
11
16.999999999999993
21
35
31
0
0
LINE
5
320
100
AcDbEntity
8
0
100
AcDbLine
10
11.999999999999993
20
125
30
0
11
16.999999999999993
21
125
31
0
0
LINE
5
321
100
AcDbEntity
8
0
100
AcDbLine
10
16.999999999999993
20
125
30
0
11
16.999999999999993
21
115
31
0
0
LINE
5
322
100
AcDbEntity
8
0
100
AcDbLine
10
16.999999999999993
20
115
30
0
11
11.999999999999993
21
115
31
0
0
LINE
5
323
100
AcDbEntity
8
0
100
AcDbLine
10
11.999999999999993
20
25
30
0
11
11.999999999999993
21
20
31
0
0
LINE
5
324
100
AcDbEntity
8
0
100
AcDbLine
10
-118
20
127.00000268220893
30
0
11
-118
21
152.00000268220893
31
0
0
CIRCLE
5
325
100
AcDbEntity
8
0
100
AcDbCircle
10
-132.5
20
127.00000268220893
30
0
40
1.0000000000000142
210
0
220
0
230
1
0
LINE
5
326
100
AcDbEntity
8
0
100
AcDbLine
10
-118
20
37.000002682208937
30
0
11
-118
21
27.000002682208937
31
0
0
CIRCLE
5
327
100
AcDbEntity
8
0
100
AcDbCircle
10
-132.5
20
37.000002682208937
30
0
40
1.0000000000000142
210
0
220
0
230
1
0
CIRCLE
5
328
100
AcDbEntity
8
0
100
AcDbCircle
10
-371.50000000000006
20
127.00000268220893
30
0
40
1.0000000000000142
210
0
220
0
230
1
0
CIRCLE
5
329
100
AcDbEntity
8
0
100
AcDbCircle
10
-371.50000000000006
20
37.000002682208937
30
0
40
1.0000000000000142
210
0
220
0
230
1
0
LINE
5
330
100
AcDbEntity
8
0
100
AcDbLine
10
11.999999999999993
20
145
30
0
11
11.999999999999993
21
125
31
0
0
LINE
5
331
100
AcDbEntity
8
0
100
AcDbLine
10
11.999999999999993
20
115
30
0
11
11.999999999999993
21
35
31
0
0
LINE
5
332
100
AcDbEntity
8
0
100
AcDbLine
10
-252.00000000000003
20
27.000002682208937
30
0
11
-212.00000000000003
21
27.000002682208937
31
0
0
LINE
5
333
100
AcDbEntity
8
0
100
AcDbLine
10
-212.00000000000003
20
27.000002682208937
30
0
11
-212.00000000000003
21
67.00000268220893
31
0
0
LINE
5
334
100
AcDbEntity
8
0
100
AcDbLine
10
-212.00000000000003
20
67.00000268220893
30
0
11
-252.00000000000003
21
67.00000268220893
31
0
0
LINE
5
335
100
AcDbEntity
8
0
100
AcDbLine
10
-212.00000000000003
20
67.00000268220893
30
0
11
-292
21
67.00000268220893
31
0
0
LINE
5
336
100
AcDbEntity
8
0
100
AcDbLine
10
-292
20
67.00000268220893
30
0
11
-292
21
27.00000268220894
31
0
0
LINE
5
337
100
AcDbEntity
8
0
100
AcDbLine
10
-292
20
27.00000268220894
30
0
11
-212.00000000000003
21
27.00000268220894
31
0
0
LINE
5
338
100
AcDbEntity
8
0
100
AcDbLine
10
-212.00000000000003
20
27.00000268220894
30
0
11
-212.00000000000003
21
67.00000268220893
31
0
0
ENDSEC
0
SECTION
2
OBJECTS
0
DICTIONARY
5
C
100
AcDbDictionary
3
ACAD_GROUP
350
D
3
ACAD_MLINESTYLE
350
17
0
DICTIONARY
5
D
100
AcDbDictionary
0
DICTIONARY
5
1A
330
C
100
AcDbDictionary
0
DICTIONARY
5
17
100
AcDbDictionary
0
ENDSEC
0
EOF
